<svg width="25" height="25" viewBox="0 0 25 25" fill="none" xmlns="http://www.w3.org/2000/svg">
<g clip-path="url(#clip0_2168_443)">
<mask id="mask0_2168_443" style="mask-type:luminance" maskUnits="userSpaceOnUse" x="0" y="0" width="25" height="25">
<path d="M0.199707 0.199707H24.7998V24.7998H0.199707V0.199707Z" fill="white"/>
</mask>
<g mask="url(#mask0_2168_443)">
<path fill-rule="evenodd" clip-rule="evenodd" d="M24.7993 2.50684C24.7993 1.89438 24.5571 1.30767 24.1247 0.875293C23.6923 0.442895 23.1056 0.200684 22.4932 0.200684H2.50635C1.8939 0.200684 1.30718 0.442915 0.874804 0.875293C0.442407 1.30769 0.200195 1.89438 0.200195 2.50684V22.4937C0.200195 23.1063 0.442427 23.693 0.874804 24.1254C1.3072 24.5578 1.8939 24.8 2.50635 24.8H22.4932C23.1056 24.8 23.6923 24.5578 24.1247 24.1254C24.5571 23.693 24.7993 23.1063 24.7993 22.4937V2.50684ZM23.2627 2.50684V22.4937C23.2627 22.6983 23.1805 22.8931 23.0365 23.0371C22.8923 23.1813 22.6978 23.2635 22.4931 23.2635H2.50631C2.30165 23.2635 2.1071 23.1813 1.9629 23.0371C1.8189 22.8931 1.73669 22.6983 1.73669 22.4937V2.50684C1.73669 2.30218 1.8189 2.10763 1.9629 1.96343C2.10709 1.81942 2.30165 1.73722 2.50631 1.73722H22.4931C22.6978 1.73722 22.8923 1.81942 23.0365 1.96343C23.1805 2.10762 23.2627 2.30217 23.2627 2.50684Z" fill="#38B2AC"/>
</g>
<path fill-rule="evenodd" clip-rule="evenodd" d="M7.8876 4.04355C7.8876 4.46813 7.54351 4.8124 7.11895 4.8124C6.69437 4.8124 6.3501 4.46813 6.3501 4.04355C6.3501 3.61898 6.69438 3.2749 7.11895 3.2749C7.54352 3.2749 7.8876 3.61899 7.8876 4.04355Z" fill="#38B2AC"/>
<path fill-rule="evenodd" clip-rule="evenodd" d="M10.9623 4.04355C10.9623 4.46813 10.618 4.8124 10.1935 4.8124C9.76888 4.8124 9.4248 4.46813 9.4248 4.04355C9.4248 3.61898 9.76889 3.2749 10.1935 3.2749C10.618 3.2749 10.9623 3.61899 10.9623 4.04355Z" fill="#38B2AC"/>
<path fill-rule="evenodd" clip-rule="evenodd" d="M4.81191 4.04355C4.81191 4.46813 4.46764 4.8124 4.04307 4.8124C3.61868 4.8124 3.27441 4.46813 3.27441 4.04355C3.27441 3.61898 3.61869 3.2749 4.04307 3.2749C4.46764 3.2749 4.81191 3.61899 4.81191 4.04355Z" fill="#38B2AC"/>
<mask id="mask1_2168_443" style="mask-type:luminance" maskUnits="userSpaceOnUse" x="0" y="6" width="25" height="2">
<path d="M0.199707 6.34766H24.7998V7.91016H0.199707V6.34766Z" fill="white"/>
</mask>
<g mask="url(#mask1_2168_443)">
<path fill-rule="evenodd" clip-rule="evenodd" d="M0.968799 7.88833H24.0313C24.4557 7.88833 24.7999 7.54386 24.7999 7.11948C24.7999 6.69529 24.4557 6.35083 24.0313 6.35083H0.968799C0.544414 6.35083 0.199951 6.6953 0.199951 7.11948C0.199951 7.54387 0.544419 7.88833 0.968799 7.88833Z" fill="#38B2AC"/>
</g>
<path fill-rule="evenodd" clip-rule="evenodd" d="M15.9517 14.3229C16.1939 14.1872 16.3439 13.9305 16.3439 13.653C16.3439 13.3756 16.1939 13.1189 15.9517 12.9833L9.80181 9.52393C9.56415 9.38965 9.2729 9.39251 9.03677 9.53022C8.80083 9.66774 8.65625 9.92027 8.65625 10.1936V17.1125C8.65625 17.3857 8.80083 17.6382 9.03677 17.7759C9.2729 17.9136 9.56416 17.9165 9.80181 17.7822L15.9517 14.3229ZM10.1939 15.7978L14.0069 13.653L10.1939 11.5082V15.7978Z" fill="#38B2AC"/>
<path fill-rule="evenodd" clip-rule="evenodd" d="M3.2749 19.419V20.9565C3.2749 21.3809 3.61937 21.7252 4.04355 21.7252C4.46794 21.7252 4.8124 21.3809 4.8124 20.9565V19.419C4.8124 18.9947 4.46793 18.6504 4.04355 18.6504C3.61936 18.6504 3.2749 18.9947 3.2749 19.419Z" fill="#38B2AC"/>
<path fill-rule="evenodd" clip-rule="evenodd" d="M6.3501 19.419V20.9565C6.3501 21.3809 6.69438 21.7252 7.11875 21.7252C7.54314 21.7252 7.8876 21.3809 7.8876 20.9565V19.419C7.8876 18.9947 7.54313 18.6504 7.11875 18.6504C6.69437 18.6504 6.3501 18.9947 6.3501 19.419Z" fill="#38B2AC"/>
<path fill-rule="evenodd" clip-rule="evenodd" d="M10.1939 20.956H20.9566C21.3808 20.956 21.7253 20.6115 21.7253 20.1873C21.7253 19.7629 21.3808 19.4185 20.9566 19.4185H10.1939C9.76956 19.4185 9.42529 19.7629 9.42529 20.1873C9.42529 20.6115 9.76957 20.956 10.1939 20.956Z" fill="#38B2AC"/>
</g>
<defs>
<clipPath id="clip0_2168_443">
<rect width="25" height="25" fill="white"/>
</clipPath>
</defs>
</svg>
