<svg width="36" height="36" viewBox="0 0 36 36" fill="none" xmlns="http://www.w3.org/2000/svg">
<path fill-rule="evenodd" clip-rule="evenodd" d="M33.9194 21.2288C33.7999 22.3307 33.2986 22.7287 33.1893 22.8036C33.1943 22.7339 33.1965 22.663 33.1965 22.5919C33.1965 20.8305 31.7688 19.4031 30.0076 19.4031C28.2463 19.4031 26.8188 20.8308 26.8188 22.5919C26.8188 22.7597 26.8315 22.9248 26.8567 23.0857L26.4925 23.5257C20.9087 23.4565 15.4619 23.5002 10.1681 23.6707L9.9209 23.3582C9.98187 23.1126 10.014 22.8561 10.014 22.5919C10.014 20.8305 8.58631 19.4031 6.82519 19.4031C5.06351 19.4028 3.63561 20.8302 3.63561 22.5913C3.63561 22.8347 3.6628 23.0717 3.71498 23.2999L3.67983 23.3403C3.67983 23.3403 3.27305 23.3711 3.02092 23.3065C2.76879 23.2423 2.05933 22.8248 2.05933 22.7281C2.05933 22.6314 2.10602 22.5924 2.20243 22.551C2.29911 22.5095 2.34745 22.563 2.40403 22.5293C2.46006 22.4955 2.465 22.3969 2.47764 22.3175C2.49 22.2381 2.53257 21.983 2.48285 21.9151C2.43314 21.8467 2.33975 21.891 2.28977 21.8506C2.24006 21.8102 2.15409 20.3089 2.2027 20.2567C2.25077 20.2045 2.37601 20.285 2.40815 20.2606C2.44028 20.237 2.47654 20.0433 2.46033 19.9909C2.4444 19.9384 2.34992 19.9406 2.32795 19.87C2.3057 19.7994 2.60426 19.0947 2.73033 18.8716C2.8564 18.6489 3.14094 18.0265 3.94786 17.4327C4.75504 16.8394 7.97761 16.1108 8.09714 16.0544C8.21579 15.9981 8.27676 15.9014 8.27676 15.9014C8.27676 15.9014 8.41272 15.9347 8.51544 15.9361C8.61816 15.9377 8.75522 15.8638 8.95544 15.7751C9.15512 15.6867 12.83 13.1889 16.1892 12.0455C19.1942 11.4284 20.3755 11.5805 22.586 11.5679C24.7965 11.5563 28.0276 11.7297 28.0276 11.7297C28.0276 11.7297 28.3025 11.5459 28.3602 11.4827C28.4132 11.4245 28.7832 10.9098 28.9985 10.6266C29.0108 10.6104 29.0301 10.6011 29.0498 10.6011C29.0573 10.6011 29.065 10.6024 29.0726 10.6052C29.1141 10.6203 29.1287 10.6711 29.1012 10.7057C28.8117 11.0724 28.4585 11.5036 28.4571 11.5789C28.4558 11.6632 28.4571 11.8365 28.4571 11.8365C28.4571 11.8365 31.2045 12.2081 31.2608 12.2738C31.3172 12.3394 30.9648 12.6495 31.0007 12.7275C31.037 12.8049 32.2027 13.9077 32.5891 14.788C32.8509 15.2022 33.1456 17.5703 33.1596 18.127C33.1618 18.2102 33.1999 18.2885 33.2631 18.3431C33.6614 18.4895 33.8589 18.7952 33.9207 19.3031C33.9193 19.3036 33.9676 20.7988 33.9193 21.2287L33.9194 21.2288ZM4.41062 17.4613C3.71299 17.7939 2.90798 18.8082 2.99397 19.0227C3.07966 19.2375 3.42875 19.1947 3.65397 19.157C3.87919 19.1194 5.51092 18.2073 5.63945 17.8584C5.76799 17.5096 5.10801 17.1284 4.41062 17.4613ZM32.5708 15.7656C32.4508 15.3203 31.8309 14.5315 31.8309 14.5315C31.8309 14.5315 32.2242 15.2025 32.3077 15.5404C32.3912 15.8782 32.4121 16.957 32.5085 17.5047C32.6049 18.0521 32.7342 18.326 32.7971 18.2455C32.8598 18.1642 32.6911 16.2108 32.5708 15.7656ZM22.7685 16.1627L25.8702 16.0339L29.5943 14.4777L28.3278 12.5567L23.4441 12.267L22.7685 16.1627ZM16.4143 12.6746C14.7957 13.0825 12.808 14.2149 12.808 14.2149L12.6471 15.283C12.6471 15.283 14.0196 14.796 14.1176 14.8858C14.2154 14.9759 14.0231 15.2926 13.8759 15.5134C13.729 15.7345 13.2184 15.8985 13.0871 16.066C12.9558 16.2336 13.0091 16.4294 12.9151 16.5277C12.8212 16.6255 12.4534 16.7639 12.4534 16.7639C15.8446 16.6211 19.1222 16.4256 22.2522 16.1627L22.9391 12.2128C22.9397 12.2128 18.0326 12.2664 16.414 12.6745L16.4143 12.6746ZM21.1758 17.5484L22.4475 17.4638C22.4475 17.4638 22.3593 17.1399 21.8418 17.1399C21.3247 17.1399 21.1758 17.5484 21.1758 17.5484ZM21.8498 18.0837C22.234 18.0837 22.4796 17.6972 22.4796 17.6972L21.22 17.7656C21.22 17.7656 21.4656 18.0837 21.8498 18.0837ZM30.0117 19.7849C28.4615 19.7849 27.2049 21.0414 27.2049 22.5916C27.2049 24.1418 28.4615 25.3984 30.0117 25.3984C31.5619 25.3984 32.8184 24.1418 32.8184 22.5916C32.8184 21.0412 31.5619 19.7849 30.0117 19.7849ZM30.0117 20.5185C28.8669 20.5185 27.9386 21.4466 27.9386 22.5916C27.9386 23.7364 28.8666 24.6647 30.0117 24.6647C31.1564 24.6647 32.0848 23.7367 32.0848 22.5916C32.0848 21.4466 31.1567 20.5185 30.0117 20.5185ZM30.1369 21.568L30.1647 21.0596C30.166 21.0343 30.1463 21.0135 30.121 21.0135L29.9029 21.0137C29.8776 21.0137 29.8579 21.0346 29.8592 21.0599L29.887 21.5683C29.8884 21.5914 29.9076 21.6098 29.9306 21.6098H30.0932C30.1163 21.6095 30.1353 21.5914 30.1369 21.568ZM29.8867 23.7117L29.859 24.2201C29.8576 24.2454 29.8774 24.2662 29.9026 24.2662H30.1204C30.1457 24.2662 30.1655 24.2454 30.1641 24.2201L30.1364 23.7117C30.135 23.6886 30.1158 23.6702 30.0927 23.6702H29.9301C29.9073 23.6702 29.8881 23.6881 29.8867 23.7117ZM28.9427 22.515L28.4343 22.4872C28.409 22.4859 28.3882 22.5056 28.3882 22.5309V22.7487C28.3882 22.774 28.409 22.7938 28.4343 22.7924L28.9427 22.7646C28.9658 22.7633 28.9842 22.744 28.9842 22.721V22.5584C28.9842 22.535 28.966 22.5161 28.9427 22.515ZM31.0861 22.7646L31.5945 22.7924C31.6198 22.7938 31.6406 22.774 31.6406 22.7487V22.5309C31.6406 22.5056 31.6198 22.4859 31.5945 22.4872L31.0861 22.515C31.063 22.5164 31.0446 22.5356 31.0446 22.5586V22.7212C31.0446 22.7446 31.0628 22.7635 31.0861 22.7646ZM29.5925 21.647L29.3662 21.1911C29.3552 21.1688 29.3272 21.1603 29.3055 21.1727L29.116 21.2801C29.094 21.2924 29.0874 21.3205 29.1009 21.3416L29.375 21.7703C29.3873 21.7898 29.4132 21.7962 29.4335 21.7849L29.5752 21.705C29.5953 21.6932 29.603 21.6676 29.5925 21.647ZM30.4311 23.6353L30.6574 24.0912C30.6684 24.1134 30.6964 24.122 30.7181 24.1096L30.9076 24.0022C30.9296 23.9898 30.9362 23.9618 30.9227 23.9407L30.6486 23.5119C30.6362 23.4924 30.6104 23.4861 30.5901 23.4974L30.4484 23.5773C30.4283 23.5894 30.4209 23.6144 30.4311 23.6353ZM29.0202 23.059L28.5642 23.2853C28.542 23.2963 28.5335 23.3243 28.5458 23.346L28.6532 23.5356C28.6656 23.5575 28.6936 23.5641 28.7148 23.5507L29.1435 23.2766C29.163 23.2642 29.1693 23.2384 29.1581 23.2181L29.0781 23.0763C29.066 23.0563 29.0408 23.0486 29.0202 23.059ZM31.0087 22.2205L31.4646 21.9942C31.4869 21.9832 31.4954 21.9552 31.483 21.9335L31.3756 21.7439C31.3633 21.722 31.3353 21.7154 31.3141 21.7288L30.8854 22.0029C30.8659 22.0153 30.8595 22.0411 30.8708 22.0614L30.9507 22.2032C30.9625 22.2229 30.9878 22.2306 31.0087 22.2205ZM29.1481 21.9964L28.7224 21.7176C28.7015 21.7038 28.6733 21.7104 28.6609 21.7321L28.5519 21.9206C28.5395 21.9423 28.5477 21.9703 28.57 21.9815L29.0234 22.2128C29.044 22.2235 29.0696 22.2161 29.0811 22.1958L29.163 22.0551C29.1737 22.0345 29.1676 22.009 29.1481 21.9964ZM30.8768 23.2881L31.3026 23.5668C31.3234 23.5806 31.3517 23.574 31.3641 23.5523L31.4731 23.3639C31.4855 23.3422 31.4773 23.3142 31.455 23.3029L31.0015 23.0716C30.9809 23.0609 30.9554 23.0683 30.9439 23.0887L30.862 23.2293C30.8513 23.2496 30.8573 23.2754 30.8768 23.2881ZM29.3676 23.5039L29.0888 23.9297C29.0751 23.9505 29.0817 23.9788 29.1034 23.9912L29.2918 24.1002C29.3135 24.1126 29.3415 24.1044 29.3528 24.0821L29.584 23.6286C29.5947 23.608 29.5873 23.5825 29.567 23.571L29.4264 23.4891C29.4063 23.4784 29.3805 23.4844 29.3676 23.5039ZM30.6596 21.7755L30.9384 21.3498C30.9521 21.3289 30.9455 21.3006 30.9238 21.2883L30.7354 21.1792C30.7137 21.1669 30.6857 21.1751 30.6744 21.1974L30.4431 21.6508C30.4324 21.6714 30.4398 21.697 30.4602 21.7085L30.6008 21.7901C30.6214 21.8011 30.6469 21.795 30.6596 21.7755ZM6.83419 19.7848C5.28401 19.7848 4.02746 21.0414 4.02746 22.5916C4.02746 24.1418 5.28401 25.3983 6.83419 25.3983C8.38437 25.3983 9.64092 24.1418 9.64092 22.5916C9.64092 21.0411 8.38437 19.7848 6.83419 19.7848ZM6.83419 20.5185C5.68943 20.5185 4.7611 21.4465 4.7611 22.5916C4.7611 23.7363 5.68915 24.6647 6.83419 24.6647C7.97895 24.6647 8.90728 23.7366 8.90728 22.5916C8.90728 21.4465 7.97923 20.5185 6.83419 20.5185ZM6.95943 21.568L6.98717 21.0596C6.98854 21.0343 6.96877 21.0134 6.9435 21.0134H6.72569C6.70043 21.0134 6.68065 21.0343 6.68202 21.0596L6.70976 21.568C6.71114 21.591 6.73036 21.6094 6.75343 21.6094H6.91603C6.93883 21.6094 6.95778 21.5913 6.95943 21.568ZM6.70922 23.7116L6.68148 24.22C6.6801 24.2453 6.69988 24.2662 6.72515 24.2662H6.94295C6.96822 24.2662 6.988 24.2453 6.98662 24.22L6.95888 23.7116C6.95751 23.6886 6.93828 23.6702 6.91521 23.6702H6.75262C6.72982 23.6702 6.71059 23.688 6.70922 23.7116ZM5.7652 22.5149L5.25681 22.4872C5.23154 22.4858 5.21066 22.5056 5.21066 22.5309V22.7487C5.21066 22.7739 5.23154 22.7937 5.25681 22.7923L5.7652 22.7646C5.78827 22.7632 5.80667 22.744 5.80667 22.7209V22.5583C5.80667 22.535 5.78855 22.516 5.7652 22.5149ZM7.90861 22.7646L8.417 22.7923C8.44227 22.7937 8.46314 22.7739 8.46314 22.7487V22.5309C8.46314 22.5056 8.44227 22.4858 8.417 22.4872L7.90861 22.5149C7.88554 22.5163 7.86714 22.5355 7.86714 22.5586V22.7212C7.86714 22.7445 7.88526 22.7635 7.90861 22.7646ZM6.41531 21.647L6.18899 21.191C6.178 21.1688 6.14999 21.1603 6.12829 21.1726L5.93878 21.28C5.9168 21.2924 5.91021 21.3204 5.92367 21.3416L6.19778 21.7703C6.21014 21.7898 6.23595 21.7961 6.25628 21.7849L6.398 21.7049C6.41805 21.6931 6.42575 21.6676 6.41531 21.647ZM7.25358 23.6352L7.4799 24.0911C7.49088 24.1134 7.5189 24.1219 7.5406 24.1095L7.73011 24.0022C7.75208 23.9898 7.75868 23.9618 7.74522 23.9406L7.47111 23.5119C7.45875 23.4924 7.43293 23.4861 7.41261 23.4973L7.27089 23.5773C7.25111 23.5893 7.24341 23.6143 7.25358 23.6352ZM5.84269 23.059L5.38675 23.2853C5.3645 23.2963 5.35599 23.3243 5.36835 23.346L5.47574 23.5355C5.4881 23.5575 5.51611 23.5641 5.53726 23.5506L5.96601 23.2765C5.98551 23.2641 5.99182 23.2383 5.98056 23.218L5.90064 23.0763C5.88883 23.0562 5.86329 23.0485 5.84269 23.059ZM7.83119 22.2204L8.28713 21.9941C8.30937 21.9831 8.31789 21.9551 8.30553 21.9334L8.19814 21.7439C8.18578 21.7219 8.15777 21.7153 8.13662 21.7288L7.70787 22.0029C7.68837 22.0153 7.68206 22.0411 7.69332 22.0614L7.77324 22.2031C7.78505 22.2229 7.81032 22.2306 7.83119 22.2204ZM5.97094 21.9963L5.54521 21.7175C5.52434 21.7038 5.49605 21.7104 5.48369 21.7321L5.37465 21.9205C5.36229 21.9422 5.37053 21.9702 5.39278 21.9815L5.84624 22.2127C5.86684 22.2235 5.89238 22.216 5.90392 22.1957L5.98577 22.0551C5.99648 22.0345 5.99016 22.0089 5.97094 21.9963ZM7.69936 23.288L8.12508 23.5668C8.14595 23.5805 8.17424 23.5739 8.1866 23.5522L8.29564 23.3638C8.308 23.3421 8.29976 23.3141 8.27752 23.3028L7.82406 23.0716C7.80346 23.0609 7.77791 23.0683 7.76638 23.0886L7.68453 23.2292C7.67382 23.2496 7.67986 23.2754 7.69936 23.288ZM6.19066 23.5039L5.91189 23.9296C5.89815 23.9505 5.90475 23.9788 5.92644 23.9911L6.11486 24.1002C6.13656 24.1125 6.16457 24.1043 6.17583 24.0821L6.4071 23.6286C6.41781 23.608 6.4104 23.5825 6.39007 23.5709L6.24944 23.4891C6.22885 23.4784 6.20302 23.4844 6.19066 23.5039ZM7.48209 21.7755L7.76087 21.3498C7.7746 21.3289 7.76801 21.3006 7.74631 21.2882L7.55789 21.1792C7.5362 21.1668 7.50818 21.1751 7.49692 21.1973L7.26565 21.6508C7.25494 21.6714 7.26236 21.6969 7.28268 21.7085L7.42331 21.7903C7.44391 21.801 7.46946 21.795 7.48209 21.7755Z" fill="#38B2AC"/>
</svg>
