<svg width="39" height="39" viewBox="0 0 39 39" fill="none" xmlns="http://www.w3.org/2000/svg">
<g id="Destination Travel - iconSvg.co">
<g id="Group">
<path id="Vector" d="M19.5001 32.6915C14.3722 32.6915 9.90625 13.225 9.90625 9.9054C9.90625 5.27735 14.2103 1.5105 19.5001 1.5105C24.7899 1.5105 29.0939 5.27743 29.0939 9.9054C29.0936 13.2248 24.6278 32.6915 19.5001 32.6915ZM19.5001 3.90915C15.5317 3.90915 12.3045 6.59893 12.3045 9.90532C12.3045 14.8535 17.3161 29.9835 19.5084 30.2927C21.6838 29.9836 26.6954 14.8542 26.6954 9.90609C26.6954 6.59977 23.4682 3.90961 19.5001 3.90961V3.90915Z" fill="#FFA451"/>
<path id="Vector_2" d="M19.5001 15.9025C17.5166 15.9025 15.9025 14.2883 15.9025 12.3049C15.9025 10.3214 17.5166 8.70728 19.5001 8.70728C21.4835 8.70728 23.0977 10.3214 23.0977 12.3049C23.0977 14.2883 21.4835 15.9025 19.5001 15.9025ZM19.5001 11.1054C18.838 11.1054 18.301 11.6428 18.301 12.3045C18.301 12.9665 18.8383 13.5036 19.5001 13.5036C20.1621 13.5036 20.6992 12.9662 20.6992 12.3045C20.6992 11.6428 20.1618 11.1054 19.5001 11.1054Z" fill="#FFA451"/>
<path id="Vector_3" d="M19.5 37.4888C11.9796 37.4888 6.30859 34.6537 6.30859 30.8927C6.30859 28.1068 9.43613 25.76 14.4719 24.7681C15.1292 24.6434 15.7528 25.0644 15.8811 25.713C16.0082 26.3632 15.5862 26.9928 14.9361 27.1222C10.8466 27.9259 8.70702 29.6276 8.70702 30.8927C8.70702 32.8738 13.3229 35.0902 19.5006 35.0902C25.6783 35.0902 30.2941 32.874 30.2941 30.8927C30.2941 29.6276 28.1548 27.9259 24.0665 27.121C23.4163 26.9928 22.9932 26.362 23.1215 25.7118C23.2485 25.0632 23.8746 24.6374 24.5307 24.7668C29.5652 25.76 32.6932 28.1068 32.6932 30.8927C32.6932 34.6537 27.022 37.4888 19.5018 37.4888H19.5Z" fill="#FFA451"/>
</g>
</g>
</svg>
