<svg width="75" height="75" viewBox="0 0 75 75" fill="none" xmlns="http://www.w3.org/2000/svg">
<g id="Car With Traffic - iconSvg.co">
<path id="Vector" fill-rule="evenodd" clip-rule="evenodd" d="M62.5591 29.3701C62.119 29.3718 61.8873 30.0521 62.2306 30.3274C66.9382 35.035 66.9382 42.627 62.2306 47.3342C62.0309 47.5196 62.012 47.8687 62.1877 48.0775C62.3817 48.315 62.7954 48.3322 63.0025 48.1061C68.1204 42.9888 68.1204 34.6731 63.0025 29.5553C62.9276 29.4712 62.8263 29.422 62.7164 29.398C62.6695 29.3837 62.6191 29.3705 62.5734 29.3694H62.5591V29.3701ZM43.9951 31.1852C43.7313 31.1852 43.5482 31.3746 43.4378 31.5994C43.392 31.6115 43.3428 31.6241 43.309 31.6561L43.0658 31.8993C43.0143 31.9479 42.9829 32.0143 42.98 32.0853V32.1997H36.806C36.7287 32.032 36.6892 31.8278 36.5342 31.7425C36.3545 31.6435 36.1216 31.6715 35.9053 31.6859C35.7915 31.4495 35.5906 31.243 35.3194 31.243C35.0293 31.243 34.8136 31.4679 34.7191 31.7288L34.4473 31.8861C34.3638 31.9342 34.3037 32.0326 34.3043 32.1293V32.2008L31.8603 32.1722C31.8512 32.1568 31.8455 32.1442 31.8317 32.1293C31.7516 32.0349 31.6234 31.972 31.489 31.972C31.3259 31.972 31.2057 32.0498 31.1176 32.1722H30.7606C30.6896 32.1797 30.6095 32.206 30.5603 32.2581C30.5116 32.3107 30.4979 32.3376 30.4745 32.3725C30.4699 32.3799 30.4647 32.3805 30.4601 32.3868C30.4327 32.4 30.4081 32.4091 30.3886 32.4297C30.2124 32.6289 30.0716 32.8503 29.9314 33.0443C29.9589 33.0105 29.9532 33.0088 29.9028 33.0729H29.8885C29.3363 33.8402 28.8969 34.6505 28.402 35.4023C28.3837 35.4286 28.3728 35.4378 28.3591 35.4589H27.4447C27.3818 35.4589 27.332 35.4664 27.2587 35.4875C27.2221 35.4996 27.1958 35.5179 27.1443 35.5591C27.1168 35.5825 27.0957 35.6512 27.0728 35.7021C26.3283 35.7702 25.5953 35.8721 24.8578 36.0025H24.8435C24.8114 35.9951 24.7628 35.9951 24.729 36.0025C23.9211 36.1507 23.1372 36.3178 22.3853 36.5312C21.7553 36.6978 21.123 36.8797 20.4844 37.0886V37.1315C20.1519 37.1996 19.8915 37.4061 19.784 37.7031C19.6146 38.158 19.6175 38.6135 19.5837 39.0323C19.5837 39.0678 19.5843 39.0993 19.598 39.1325H19.4979C19.3537 39.1325 19.2261 39.2601 19.2261 39.4037V40.876C19.2261 41.0145 19.3451 41.1387 19.4836 41.1478V41.8625C19.4881 41.9335 19.5202 42.0141 19.5694 42.0628L20.8557 43.3777C20.9089 43.4338 20.9793 43.4653 21.056 43.4635H21.999C22.0402 43.4635 22.0911 43.455 22.1277 43.4349C22.4247 45.1372 23.8426 46.4505 25.629 46.4505C27.2616 46.4505 28.593 45.3513 29.0444 43.8636C29.0919 44.0919 29.2659 44.2921 29.5302 44.2921H43.2929C43.6007 44.2921 43.8073 44.0381 43.8073 43.7634V43.4493C43.8565 43.423 43.841 43.4418 43.8931 43.435C44.1815 45.1475 45.6722 46.4505 47.466 46.4505C49.4648 46.4505 51.0818 44.834 51.0818 42.8347C51.0818 42.5245 51.0383 42.2236 50.9674 41.9346C50.9948 41.9449 51.024 41.9478 51.0532 41.9489H52.0677C52.1387 41.9415 52.2045 41.9151 52.2537 41.8631L52.7824 41.3344C52.8333 41.3578 52.8774 41.391 52.9398 41.391H53.183V41.5054C53.183 41.8442 53.4731 42.1486 53.8118 42.1486H54.5694C54.6472 42.2075 54.6673 42.3346 54.7697 42.3346C54.8687 42.3346 54.8647 42.2047 54.9414 42.1486C54.9459 42.1486 54.9511 42.156 54.9557 42.1486H55.7705C56.1092 42.1486 56.4279 41.8654 56.4279 41.5054V35.689C56.4279 35.3291 56.1304 35.0315 55.7705 35.0315H54.9557C54.9511 35.0241 54.9459 35.0315 54.9414 35.0315C54.8653 34.9755 54.8687 34.8456 54.7697 34.8456C54.6678 34.8456 54.6472 34.9726 54.5694 35.0315H53.8118C53.4519 35.0315 53.183 35.3502 53.183 35.689V37.4182H52.9398C52.755 37.4182 52.6697 37.5985 52.597 37.761C52.6108 37.1333 52.6754 36.521 52.597 35.8744V35.8601C52.4843 35.2644 52.4563 34.4719 52.3538 33.7881C52.3029 33.4459 52.2331 33.1272 52.1106 32.8451C51.9888 32.5624 51.7913 32.3107 51.5104 32.1733V32.1304C51.5104 31.9862 51.3828 31.8586 51.2386 31.8586H50.3808C50.2372 31.8586 50.109 31.9862 50.109 32.1304V32.159H45.536C45.4599 31.9748 45.4175 31.7797 45.2499 31.6875C45.0524 31.5782 44.8052 31.5885 44.5638 31.616C44.4579 31.3883 44.2691 31.1937 44.0065 31.1874H43.9921L43.9951 31.1852ZM60.4585 31.4856C59.9853 31.394 59.6814 32.1831 60.0871 32.4429C63.6211 35.9768 63.6211 41.6852 60.0871 45.2197C59.9017 45.4057 59.8851 45.737 60.0585 45.9344C60.2399 46.1701 60.6353 46.189 60.8447 45.9773C64.7797 42.0429 64.75 35.649 60.8161 31.7146C60.7463 31.6213 60.6433 31.5435 60.53 31.5143C60.5071 31.5045 60.4957 31.5063 60.4728 31.5L60.4585 31.4856ZM31.79 33.6862H35.9202H35.9488C36.0672 33.6937 36.2005 33.7291 36.3058 33.8293C36.4105 33.93 36.4632 34.0885 36.4632 34.2435V36.4585C36.4632 36.6027 36.3207 36.7303 36.1771 36.7303L30.1604 36.7017C29.9973 36.7017 29.8428 36.5329 29.8743 36.3733C29.8977 36.2348 29.9487 36.0551 30.0459 35.8017C30.1426 35.5482 30.288 35.2466 30.4459 34.9439C30.6044 34.6418 30.7784 34.35 30.9889 34.1148C31.1823 33.8842 31.4438 33.7051 31.7894 33.6862L31.79 33.6862ZM37.9498 33.6862H37.9641H42.3518C42.476 33.6862 42.5915 33.7806 42.6236 33.9008C42.6236 33.9008 43.0213 35.6694 43.2095 36.3304C43.2633 36.4935 43.1243 36.7017 42.952 36.7017L37.693 36.7304C37.5488 36.7304 37.4212 36.6028 37.4212 36.4586V34.2436C37.4212 34.0776 37.4818 33.9237 37.5928 33.8293C37.7033 33.7349 37.8297 33.6919 37.9498 33.6862ZM43.9809 33.7005H50.2695C50.4085 33.6931 50.5602 33.7389 50.6694 33.8436C50.7799 33.9477 50.8365 34.1068 50.8411 34.2578V36.4299C50.8411 36.5741 50.7135 36.716 50.5693 36.716H44.6241C44.4953 36.716 44.3609 36.6136 44.338 36.4871L43.8093 34.0432C43.7664 33.9081 43.847 33.7463 43.9809 33.7005ZM58.3009 33.7572C57.8483 33.6965 57.5193 34.382 57.858 34.6864C60.1492 36.9764 60.1492 40.6848 57.858 42.9754C57.6503 43.1682 57.6486 43.5281 57.8437 43.733C58.044 43.9499 58.4297 43.9499 58.6299 43.733C61.3302 41.0327 61.3302 36.6297 58.6299 33.9288C58.543 33.8355 58.4279 33.7709 58.3015 33.7571L58.3009 33.7572Z" fill="#FFA451"/>
</g>
</svg>
