<!--?xml version="1.0" encoding="utf-8"?-->
<!-- Generator: Adobe Illustrator 22.1.0, SVG Export Plug-In . SVG Version: 6.00 Build 0)  -->
<svg version="1.1" id="_x36_" xmlns="http://www.w3.org/2000/svg" xmlns:xlink="http://www.w3.org/1999/xlink" x="0px" y="0px" viewBox="0 0 800 799.983" style="enable-background:new 0 0 800 799.983;" xml:space="preserve">
<style type="text/css">
	.st0{fill:#D7202A;}
	.st1{fill:#231815;}
	.st2{fill:#040000;}
</style>
<g>
	<path class="st0" d="M400,2C180.202,2,2,180.19,2,399.995s178.202,397.988,398,397.988c219.809,0,398-178.183,398-397.988
		S619.81,2,400,2z M649.714,598.776l-56.846-56.857h-5.39h-96.5l107.814,107.802c-54.547,43.463-123.631,69.457-198.782,69.457
		c-176.293,0-319.2-142.907-319.2-319.184c0-75.174,25.994-144.258,69.474-198.786l249.313,249.328h101.889L201.219,150.258
		c54.535-43.465,123.63-69.47,198.792-69.47c176.283,0,319.177,142.919,319.177,319.207
		C719.189,475.156,693.195,544.229,649.714,598.776z"></path>
	<g>
		<rect x="153.615" y="461.698" class="st1" width="423.318" height="69.048"></rect>
		<rect x="587.797" y="461.698" class="st1" width="22.523" height="69.048"></rect>
		<rect x="623.815" y="461.698" class="st1" width="22.522" height="69.048"></rect>
	</g>
	<path class="st2" d="M624.3,296.179c-15.389-16.392-39.061-28.121-69.414-28.043c-20.828,0-35.52,0-45.793,0
		c10.118-16.776,15.344-33.612,15.309-50.85c0-5.622-0.546-11.232-1.576-16.806c-4.052-23.026-16.564-39.399-32.711-48.32
		c-16.112-8.999-34.809-11.487-53.339-11.534c-6.232,0-11.267,5.047-11.267,11.267c0,6.204,5.035,11.238,11.267,11.238
		c16.457-0.035,31.491,2.482,42.273,8.631c10.723,6.25,18.21,15.183,21.657,32.783c0.795,4.342,1.185,8.559,1.185,12.742
		c-0.048,17.286-6.647,34.506-23.233,54.985c-0.107,0.13-0.178,0.284-0.273,0.415c-0.237,0.319-0.462,0.651-0.651,1.001
		c-0.178,0.302-0.344,0.586-0.487,0.888c-0.177,0.361-0.319,0.717-0.438,1.097c-0.119,0.319-0.224,0.651-0.32,0.971
		c-0.082,0.373-0.142,0.754-0.189,1.132c-0.07,0.368-0.107,0.73-0.118,1.085c-0.012,0.184-0.048,0.35-0.048,0.527
		c0,0.214,0.036,0.403,0.06,0.598c0.012,0.361,0.047,0.711,0.107,1.06c0.059,0.398,0.119,0.789,0.236,1.167
		c0.072,0.314,0.166,0.616,0.273,0.912c0.142,0.391,0.296,0.758,0.462,1.132c0.129,0.296,0.296,0.562,0.474,0.84
		c0.201,0.361,0.426,0.693,0.662,1.001c0.202,0.267,0.403,0.515,0.629,0.764c0.273,0.314,0.569,0.598,0.877,0.878
		c0.13,0.123,0.225,0.267,0.367,0.373c0.059,0.058,0.154,0.07,0.238,0.123c0.9,0.705,1.883,1.256,2.962,1.665
		c0.178,0.065,0.368,0.113,0.545,0.172c1.066,0.326,2.145,0.545,3.318,0.545c0.012,0,0.035,0.024,0.06,0.024
		c0,0,0.011-0.012,0.023-0.012c0.19,0,3.376,0,13.091,0c10,0,26.872,0,54.37,0c48.682,0.023,69.723,35.715,70.008,61.252
		c0,13.939,0,52.391,0,88.124h22.499c0-35.732,0-74.185,0-88.124C647.333,333.167,639.738,312.594,624.3,296.179z M544.875,329.508
		c-25.888,0-70.175,0-86.347,0c-7.179,0.141-16.895-4.533-24.371-12.927c-7.559-8.323-12.641-19.714-12.594-31.165
		c0.012-7.405,1.967-14.946,6.943-22.624c0.047-0.07,0.083-0.159,0.13-0.237c0.332-0.551,0.639-1.108,0.865-1.718
		c0.095-0.22,0.154-0.444,0.226-0.663c0.142-0.468,0.307-0.935,0.391-1.428c0.07-0.344,0.094-0.693,0.107-1.048
		c0.047-0.355,0.117-0.693,0.117-1.042c0-0.035-0.023-0.084-0.023-0.119c0-0.362-0.071-0.724-0.094-1.096
		c-0.296-2.637-1.434-5.018-3.224-6.771c-0.035-0.054-0.117-0.095-0.189-0.142c-0.462-0.475-0.983-0.89-1.54-1.268
		c-0.024-0.012-0.036-0.024-0.047-0.036c-0.119-0.064-0.238-0.106-0.345-0.177c-0.509-0.308-1.03-0.598-1.587-0.817
		c-0.273-0.107-0.534-0.172-0.818-0.249c-0.427-0.142-0.84-0.278-1.303-0.367c-0.392-0.083-0.794-0.095-1.209-0.13
		c-0.273-0.018-0.581-0.095-0.889-0.095c-15.225,0.064-34.832-3.513-49.299-12.091c-14.477-8.85-23.967-20.561-24.204-41.604
		c0.012-18.269,5.225-32.048,13.317-41.147c8.127-9.07,19.193-14.187,33.92-14.253c6.232,0,11.267-5.047,11.267-11.25
		c0-6.214-5.035-11.255-11.267-11.255c-20.224-0.072-38.375,7.761-50.768,21.823c-12.428,14.035-18.991,33.577-18.968,56.081
		c-0.26,29.139,15.828,49.903,35.33,60.992c13.803,8.045,29.228,12.251,43.6,14.064c-1.955,6.255-2.939,12.534-2.939,18.666
		c0.025,17.984,7.571,34.257,18.388,46.266c10.864,11.919,25.295,20.2,41.076,20.342c16.184-0.012,60.459-0.012,86.347,0
		c16.67,0.142,25.4,5.408,31.218,12.227c5.782,6.878,8.401,16.605,8.376,25.426c0,4.804,0,26.931,0,50.33h22.499
		c0-23.399,0-45.526,0-50.33c-0.023-12.908-3.542-27.634-13.554-39.796C583.449,337.694,566.733,329.364,544.875,329.508z"></path>
</g>
</svg>
