<svg width="200" height="250" viewBox="0 0 200 250" fill="none" xmlns="http://www.w3.org/2000/svg">
<path d="M136.207 117.896H90.941V99.7911H136.207V117.896ZM72.8358 117.896C77.8158 117.896 81.8902 113.822 81.8902 108.842C81.8902 103.862 77.8156 99.7875 72.8358 99.7875C67.8559 99.7875 63.7813 103.862 63.7813 108.842C63.7848 113.822 67.8559 117.896 72.8358 117.896ZM136.207 126.947H90.941V145.053H136.207V126.947ZM72.8358 145.053C77.8158 145.053 81.8902 140.978 81.8902 135.998C81.8902 131.018 77.8156 126.944 72.8358 126.944C67.8559 126.944 63.7813 131.018 63.7813 135.998C63.7848 140.978 67.8559 145.053 72.8358 145.053ZM136.207 154.107H90.941V172.212H136.207V154.107ZM72.8358 172.212C77.8158 172.212 81.8902 168.138 81.8902 163.158C81.8902 158.178 77.8156 154.103 72.8358 154.103C67.8559 154.103 63.7813 158.178 63.7813 163.158C63.7848 168.138 67.8559 172.212 72.8358 172.212ZM99.9955 49.9979C104.976 49.9979 109.05 45.9233 109.05 40.9435C109.05 35.9634 104.975 31.889 99.9955 31.889C95.0156 31.889 90.941 35.9636 90.941 40.9435C90.941 45.927 95.0156 49.9979 99.9955 49.9979ZM199.578 40.947V231.056C199.578 241.013 191.429 249.162 181.473 249.162L18.5234 249.158C8.5669 249.158 0.418091 241.009 0.418091 231.053V40.9435C0.418091 30.9871 8.56717 22.8382 18.5234 22.8382H63.3365C70.1275 9.26014 83.7059 0.205688 100.001 0.205688C116.296 0.205688 129.874 9.26014 136.665 22.8382H181.475C191.435 22.8382 199.58 30.9838 199.58 40.9435L199.578 40.947ZM68.3076 40.947V59.0524H131.679V40.947H122.624C122.624 28.2746 112.668 18.3145 99.9919 18.3145C87.3194 18.3145 77.3594 28.271 77.3594 40.947H68.3076ZM45.6778 77.1586V194.845H154.308V77.1586H45.6778ZM181.468 40.947H149.783V59.0524H172.416V212.955L27.5698 212.951V59.0579H50.2023V40.9525H18.518V231.062H181.468V40.947Z" fill="#38B2AC"/>
</svg>
