<svg width="51" height="28" viewBox="0 0 51 28" fill="none" xmlns="http://www.w3.org/2000/svg">
<g id="Group">
<path id="Vector" d="M48.7674 13.9904H43.7008C43.0644 12.3272 42.1295 11.2074 41.2789 10.4961C39.1492 8.71718 36.6417 8.49785 35.9647 8.63391C34.7172 8.86692 33.9175 9.35461 33.4118 9.93359C30.9239 9.24585 28.2874 9.88275 26.532 11.6316C26.1333 12.0293 25.7962 12.4699 25.4997 12.9332C25.2027 12.47 24.8656 12.0294 24.4669 11.6316C23.5631 10.7287 22.1217 10.2721 20.1846 10.2721C19.5684 10.2721 18.1054 10.3639 18.1054 10.3639C16.9257 9.37629 15.893 8.79451 15.0329 8.63158C14.9515 8.61746 14.8126 8.59863 14.6196 8.59863C13.4837 8.59863 11.0599 9.10138 9.18213 10.989C8.35176 11.8237 7.72193 12.8305 7.28172 13.9881H2.23218C1.00118 13.9905 0 14.9922 0 16.2232V24.2427C0 25.4732 1.00126 26.4748 2.23181 26.4748H8.43185C8.89128 26.7417 9.40816 26.9277 9.97255 26.9818L18.9692 27.8644L19.1109 27.8715C21.8016 27.8715 24.1558 26.4536 25.5035 24.3363C26.8607 26.4503 29.2412 27.8644 32.0181 27.8644H32.0308L41.0265 26.9818C41.5904 26.9272 42.1073 26.7422 42.5682 26.4748H48.7682C49.9987 26.4748 51 25.4731 51 24.2426V16.2231C50.9991 14.9922 49.9978 13.9904 48.7674 13.9904ZM6.57619 23.5816H2.89321V16.885H6.62475C6.5725 17.4023 6.5372 17.9328 6.53955 18.4916V23.1981C6.54049 23.3285 6.56442 23.4531 6.57619 23.5816ZM23.8065 20.2837C23.8065 22.8506 21.7348 24.9435 19.1763 24.9788L10.254 24.1028C9.78654 24.0581 9.43396 23.6673 9.43396 23.1971V18.4841C9.42172 16.0782 10.0271 14.2437 11.2336 13.0321C12.7113 11.5469 14.5735 11.4946 14.5029 11.4796C14.7095 11.5191 15.3055 11.7959 16.2508 12.5872C16.9103 13.1366 17.7741 13.3922 18.6327 13.2769C19.0056 13.2279 19.5775 13.1681 20.1852 13.1681C21.7844 13.1681 22.3035 13.5621 22.4255 13.6822C23.3161 14.569 23.8066 15.7506 23.8066 17.0079L23.8065 20.2837ZM41.567 23.1971C41.567 23.6678 41.2144 24.0576 40.746 24.1028L31.8906 24.9788C29.3016 24.9788 27.1955 22.8723 27.1955 20.2837V17.007C27.1955 15.7496 27.686 14.5681 28.5761 13.6821C29.3152 12.9445 30.341 12.5561 31.4194 12.5561C31.8092 12.5561 32.2069 12.607 32.5995 12.7105C32.608 12.8433 32.6038 16.4134 32.6038 16.4134C32.6038 17.9207 31.8732 19.3451 30.6446 20.2254L30.4563 20.361C29.8085 20.8284 29.6621 21.7332 30.1296 22.3795C30.413 22.7721 30.855 22.9802 31.3036 22.9802C31.5969 22.9802 32.3326 22.5735 32.3326 22.5735C34.2287 21.214 35.3816 19.0434 35.4776 16.7227C35.5468 16.7575 36.863 17.5097 37.5984 16.1154C37.9716 15.4079 37.6106 14.53 36.8833 14.1981C35.5365 13.5819 35.4335 12.7779 35.4955 12.1453C35.5205 11.8939 35.5431 11.6566 36.372 11.4938C36.3749 11.4754 38.2268 11.5267 39.7147 12.9799C40.9546 14.1906 41.5774 16.0415 41.5651 18.4904L41.5656 23.1973L41.567 23.1971ZM48.107 23.5817H44.424C44.4367 23.4536 44.4598 18.4982 44.4598 18.4982C44.4626 17.9258 44.4329 17.3905 44.3807 16.8844H48.1066L48.107 23.5817Z" fill="#FFA451"/>
<path id="Vector_2" d="M29.3703 0.0645345C28.6058 -0.16989 27.7966 0.259419 27.5617 1.02248L26.4748 4.55916C26.2404 5.32364 26.6683 6.13287 27.4328 6.36774C27.5744 6.41152 27.7176 6.43129 27.8578 6.43129C28.4764 6.43129 29.0488 6.03117 29.2404 5.41026L30.3278 1.87358C30.5627 1.10863 30.1343 0.299526 29.3703 0.0645345Z" fill="#FFA451"/>
<path id="Vector_3" d="M21.2733 0.0645261C20.5088 0.298951 20.081 1.10862 20.3154 1.87311L21.4023 5.40979C21.5934 6.03164 22.1668 6.43082 22.7854 6.43082C22.9252 6.43082 23.0688 6.41058 23.2105 6.36727C23.9745 6.13285 24.4028 5.32318 24.1684 4.55868L23.081 1.02201C22.8466 0.259887 22.0383 -0.171309 21.2733 0.0645261Z" fill="#FFA451"/>
</g>
</svg>
