<svg width="261" height="261" viewBox="0 0 261 261" fill="none" xmlns="http://www.w3.org/2000/svg">
<path d="M14.2072 169.823L38.2834 211.556C39.3427 213.414 41.099 214.772 43.164 215.33C45.229 215.887 47.4293 215.599 49.2791 214.527L75.4424 199.439L75.4443 199.437C82.368 205.027 90.1103 209.519 98.3976 212.761V242.857C98.3976 244.986 99.2418 247.027 100.747 248.532C102.253 250.038 104.294 250.884 106.423 250.884H154.578C156.706 250.884 158.747 250.038 160.253 248.532C161.758 247.027 162.604 244.986 162.604 242.857V212.761C170.896 209.495 178.638 204.975 185.558 199.358L211.721 214.446C213.571 215.519 215.773 215.808 217.836 215.25C219.901 214.693 221.657 213.335 222.717 211.477L246.793 169.744C247.864 167.894 248.155 165.692 247.597 163.627C247.04 161.564 245.682 159.807 243.824 158.748L217.74 143.66C219.12 134.858 219.12 125.896 217.74 117.095L243.824 102.006V102.004C245.682 100.947 247.04 99.1908 247.597 97.1259C248.155 95.0609 247.864 92.8606 246.793 91.0107L222.717 49.2777V49.2758C221.657 47.4179 219.901 46.0598 217.836 45.5023C215.773 44.9447 213.571 45.2355 211.721 46.3068L185.558 61.6354C178.636 56.0199 170.894 51.4998 162.604 48.2322V18.1361C162.604 16.0074 161.758 13.9664 160.253 12.4609C158.747 10.9554 156.706 10.1092 154.578 10.1092H106.423C104.294 10.1092 102.253 10.9555 100.747 12.4609C99.2419 13.9663 98.3976 16.0073 98.3976 18.1361V48.2322C90.1057 51.4999 82.3639 56.0199 75.4443 61.6354L49.2791 46.5474C47.4292 45.4761 45.2289 45.1853 43.1639 45.7429C41.099 46.3005 39.3427 47.6585 38.2833 49.5164L14.2071 91.2494V91.2513C13.1358 93.1012 12.8471 95.3016 13.4027 97.3665C13.9602 99.4295 15.3183 101.188 17.1761 102.245L43.2598 117.333V117.335C41.8818 126.137 41.8818 135.099 43.2598 143.901L17.1761 158.909C15.3401 159.966 13.998 161.708 13.4425 163.753C12.8849 165.798 13.1617 167.979 14.2071 169.823L14.2072 169.823ZM130.5 82.3424C143.27 82.3424 155.518 87.4162 164.549 96.4466C173.581 105.477 178.653 117.725 178.653 130.497C178.653 143.268 173.581 155.516 164.549 164.546C155.518 173.579 143.27 178.65 130.5 178.65C117.728 178.65 105.48 173.579 96.4492 164.546C87.4187 155.516 82.345 143.268 82.345 130.497C82.345 117.725 87.4187 105.477 96.4492 96.4466C105.48 87.4161 117.728 82.3424 130.5 82.3424Z" fill="#38B2AC"/>
</svg>
