<svg width="188" height="188" viewBox="0 0 188 188" fill="none" xmlns="http://www.w3.org/2000/svg">
<path d="M105.226 57.664C107.938 57.624 110.553 56.6418 112.62 54.8875C115.488 57.1626 119.033 58.4123 122.694 58.4395C126.472 58.4667 130.147 57.2154 133.123 54.8875C135.247 56.7252 137.965 57.7345 140.775 57.7281C143.907 57.7201 146.908 56.472 149.122 54.2578C151.337 52.0436 152.584 49.0427 152.592 45.9103C152.588 43.153 151.604 40.4868 149.816 38.3881L149.816 36.1595C150.067 28.8874 147.355 21.8233 142.299 16.5888C137.244 11.3544 130.277 8.39844 123 8.39844C115.723 8.39844 108.758 11.3544 103.702 16.5888C98.6456 21.8233 95.9332 28.887 96.1863 36.1595L96.1863 38.3881C94.3839 40.4789 93.3985 43.1512 93.4098 45.9103C93.4258 49.0346 94.6787 52.0225 96.8929 54.2254C99.1071 56.4268 102.103 57.6637 105.226 57.6637L105.226 57.664ZM114.913 48.333C113.367 46.5353 112.508 44.2458 112.492 41.8746L112.492 40.9053L112.492 40.9069C117.797 41.2658 122.927 38.9378 126.149 34.7082C128.233 35.9051 130.563 36.6116 132.961 36.7735L132.961 41.875C132.945 44.5778 131.852 47.1639 129.925 49.0593C127.999 50.9562 125.397 52.0073 122.694 51.9816C119.705 51.9993 116.858 50.6999 114.912 48.4296L114.913 48.333ZM101.61 41.8763L101.61 41.8747C102.267 41.2675 102.64 40.4135 102.643 39.5179L102.643 36.0956C102.422 30.5552 104.47 25.1658 108.31 21.168C112.152 17.1706 117.457 14.9115 123 14.9115C128.545 14.9115 133.848 17.1705 137.69 21.168C141.532 25.1654 143.578 30.5552 143.357 36.0956L143.357 39.6156C143.36 40.5096 143.735 41.3636 144.39 41.9724C146.032 43.448 146.588 45.7872 145.782 47.8425C144.978 49.8981 142.982 51.2391 140.774 51.2055C139.499 51.2103 138.267 50.7377 137.32 49.8821C138.694 47.3907 139.417 44.5919 139.419 41.7462L139.419 33.2548C139.431 32.2934 139.018 31.377 138.287 30.7522C137.557 30.1289 136.588 29.8613 135.641 30.0248C132.659 30.5455 129.612 29.581 127.471 27.4421C126.702 26.6987 125.614 26.383 124.566 26.6025C123.525 26.8172 122.655 27.5286 122.242 28.5075C121.26 30.696 119.5 32.4424 117.305 33.4084C115.11 34.3746 112.637 34.4915 110.36 33.7385C109.365 33.3732 108.255 33.5174 107.389 34.1262C106.532 34.7351 106.028 35.7236 106.032 36.773L106.032 41.6805C106.044 44.6381 106.822 47.5429 108.293 50.108C107.407 50.7729 106.332 51.135 105.225 51.1414C102.272 51.1238 99.8834 48.7349 99.8658 45.7823C99.8914 44.3243 100.523 42.9432 101.609 41.9723L101.61 41.8763Z" fill="black"/>
<path d="M35.9055 62.3152C36.3974 62.3168 36.8844 62.2063 37.3266 61.9916C40.1064 60.4968 42.5479 58.4395 44.4949 55.9545C48.2857 59.5513 53.3133 61.5572 58.5395 61.5572C63.7657 61.5572 68.7934 59.5513 72.5841 55.9545C74.5387 58.4122 76.9645 60.4551 79.7199 61.9596C80.1718 62.1791 80.67 62.2896 81.1731 62.2832C82.2818 62.2912 83.3185 61.7304 83.9177 60.798C86.5404 56.4864 87.4617 51.3517 86.5004 46.3978C85.0552 42.1601 82.1474 38.5778 78.2989 36.2912C76.8826 30.3279 72.845 25.326 67.3161 22.6822C61.7856 20.0402 55.3576 20.0402 49.8283 22.6822C44.2977 25.3257 40.2602 30.3279 38.8439 36.2912C34.9538 38.5678 32.0091 42.1646 30.5464 46.4298C29.5691 51.387 30.5032 56.5315 33.1612 60.83C33.7604 61.764 34.7968 62.3248 35.9055 62.3152ZM58.5072 55.1149C53.6575 55.1197 49.1617 52.5835 46.6573 48.4306C45.8595 47.1393 45.2923 45.7197 44.9782 44.233L48.2066 45.0085C48.4534 45.0405 48.7033 45.0405 48.95 45.0085C50.1917 45.0053 51.3212 44.2891 51.8548 43.1676L52.1127 42.6181L52.3707 43.1676L52.3723 43.1676C52.9106 44.3003 54.0562 45.0181 55.3107 45.0085L61.6714 45.0085C62.913 45.0053 64.0426 44.2891 64.5761 43.1676L64.834 42.6181L65.092 43.1676L65.0936 43.1676C65.7393 44.5455 67.2597 45.2857 68.7417 44.9444L72.1319 44.1689C71.8211 45.6814 71.2411 47.1249 70.4208 48.4309C67.9214 52.5886 63.4227 55.1263 58.571 55.1152L58.5072 55.1149ZM79.784 54.3074C78.4302 53.25 77.3263 51.9041 76.5556 50.3676C77.4288 48.6821 78.0488 46.8765 78.3965 45.0085C79.1928 45.9538 79.7872 47.0529 80.1397 48.2369C80.622 50.2476 80.521 52.3528 79.8497 54.3076L79.784 54.3074ZM58.5072 27.2178C61.5753 27.2082 64.5586 28.2224 66.9859 30.1001C69.4132 31.9762 71.1453 34.6102 71.9061 37.5822L69.7753 38.066L67.8062 33.6425C67.2807 32.4921 66.1319 31.7535 64.8678 31.7535C63.6021 31.7535 62.4533 32.4921 61.9294 33.6425L59.6367 38.55L57.4738 38.55L55.1811 33.6425C54.6523 32.4985 53.5036 31.768 52.2427 31.7712C50.993 31.7808 49.8618 32.5098 49.338 33.6425L47.2711 38.066L45.2043 37.5822C45.9702 34.6181 47.6973 31.9921 50.1168 30.1161C52.536 28.24 55.5095 27.221 58.5713 27.2178L58.5072 27.2178ZM36.7127 48.1727C37.0507 46.9759 37.658 45.8704 38.4879 44.9443C38.8436 46.7996 39.462 48.594 40.3288 50.2714C39.5565 51.8239 38.4543 53.1906 37.1004 54.2752C36.3954 52.3174 36.2833 50.1945 36.7768 48.1725L36.7127 48.1727Z" fill="black"/>
<path d="M150.331 94.9595C145.133 94.9595 140.149 97.0248 136.473 100.7C132.796 104.375 130.733 109.36 130.733 114.557C130.733 119.756 132.796 124.741 136.473 128.416C140.149 132.091 145.133 134.157 150.331 134.157C155.528 134.157 160.514 132.091 164.189 128.416C167.865 124.741 169.93 119.756 169.93 114.557C169.93 109.36 167.865 104.375 164.189 100.7C160.514 97.0247 155.528 94.9595 150.331 94.9595ZM150.331 127.698C146.846 127.698 143.504 126.314 141.038 123.85C138.574 121.386 137.19 118.044 137.19 114.557C137.19 111.073 138.574 107.73 141.038 105.266C143.504 102.801 146.846 101.416 150.331 101.416C153.817 101.416 157.159 102.801 159.623 105.266C162.087 107.731 163.471 111.073 163.471 114.557C163.471 118.044 162.087 121.386 159.623 123.85C157.159 126.314 153.817 127.698 150.331 127.698Z" fill="black"/>
<path d="M36.939 94.9596C31.7415 94.9596 26.7556 97.0248 23.0802 100.7C19.4048 104.375 17.3413 109.36 17.3413 114.557C17.3413 119.756 19.4049 124.741 23.0802 128.416C26.7556 132.091 31.7415 134.157 36.939 134.157C42.1365 134.157 47.1223 132.091 50.7978 128.416C54.4731 124.741 56.5383 119.756 56.5383 114.557C56.5287 109.363 54.4619 104.382 50.7879 100.71C47.1141 97.0358 42.1344 94.9673 36.9386 94.9591L36.939 94.9596ZM36.939 127.698C33.4543 127.698 30.1119 126.314 27.6465 123.85C25.1823 121.386 23.7981 118.044 23.7981 114.557C23.7981 111.073 25.1823 107.73 27.6465 105.266C30.1122 102.801 33.4543 101.416 36.939 101.416C40.4237 101.416 43.7673 102.801 46.2315 105.266C48.6956 107.731 50.0799 111.073 50.0799 114.557C50.0719 118.04 48.6844 121.378 46.2219 123.84C43.7593 126.303 40.422 127.69 36.939 127.698Z" fill="black"/>
<path d="M123.662 98.7986L63.6073 98.7986C61.824 98.7986 60.3789 100.244 60.3789 102.027C60.3789 103.81 61.824 105.255 63.6073 105.255L123.662 105.255C125.446 105.255 126.892 103.81 126.892 102.027C126.892 100.244 125.446 98.7986 123.662 98.7986Z" fill="black"/>
<path d="M123.662 110.23L63.6073 110.23C61.824 110.23 60.3789 111.675 60.3789 113.458C60.3789 115.241 61.824 116.686 63.6073 116.686L123.662 116.686C125.446 116.686 126.892 115.241 126.892 113.458C126.892 111.675 125.446 110.23 123.662 110.23Z" fill="black"/>
<path d="M123.662 121.661L63.6073 121.661C61.824 121.661 60.3789 123.106 60.3789 124.889C60.3789 126.672 61.824 128.117 63.6073 128.117L123.662 128.117C125.446 128.117 126.892 126.672 126.892 124.889C126.892 123.106 125.446 121.661 123.662 121.661Z" fill="black"/>
<path d="M181.876 64.7679C183.505 63.93 184.872 62.6563 185.824 61.0893C186.775 59.5224 187.275 57.7232 187.269 55.8886L187.269 52.3061C187.269 49.7859 186.288 47.3649 184.534 45.5561C182.781 43.7489 180.39 42.6946 177.872 42.6193L167.895 42.6193L164.667 22.31C163.618 16.097 160.41 10.4524 155.608 6.37014C150.807 2.28941 144.718 0.033633 138.417 1.75434e-07L48.8513 6.19157e-08C42.5435 0.0480663 36.4551 2.31833 31.6551 6.41033C26.855 10.5023 23.6488 16.1548 22.6013 22.3744L19.3729 42.4897L9.39626 42.4897C6.85521 42.5666 4.44731 43.6385 2.68938 45.4746C0.930183 47.3107 -0.0343001 49.7636 0.000932316 52.3061L0.000932311 55.8902L0.000932311 55.8886C-0.00707886 57.7231 0.492792 59.5223 1.44448 61.0894C2.39616 62.6563 3.7628 63.93 5.39223 64.768L15.2729 69.5791L14.1754 76.909C11.4389 78.4038 9.14442 80.594 7.52307 83.2582C5.90328 85.9226 5.01247 88.9652 4.94036 92.0832L1.13038 131.506C0.657753 137.05 2.45219 142.548 6.10352 146.746C6.74919 147.449 7.46377 148.087 8.23441 148.651L8.23441 171.123C8.23441 175.405 9.9343 179.512 12.9623 182.538C15.9888 185.567 20.0953 187.268 24.3777 187.268L33.4828 187.268C37.764 187.268 41.8701 185.566 44.8983 182.538C47.9248 179.512 49.6262 175.405 49.6262 171.123L49.6262 151.234L137.125 151.234L137.125 171.123C137.125 175.405 138.825 179.512 141.853 182.538C144.881 185.567 148.987 187.268 153.268 187.268L162.373 187.268C166.654 187.268 170.76 185.566 173.789 182.538C176.817 179.512 178.517 175.405 178.517 171.123L178.517 148.845C179.287 148.292 180 147.664 180.647 146.972C184.313 142.744 186.107 137.21 185.621 131.636L182.326 92.1808C182.197 85.8058 178.677 79.9852 173.093 76.9091L171.996 69.5792L181.876 64.7679ZM177.872 48.9466L177.872 48.9482C179.542 49.0988 180.817 50.5007 180.81 52.1766L180.81 55.7606C180.907 57.092 180.211 58.3561 179.035 58.989L171.124 62.7669L169.025 48.9483L177.872 48.9466ZM6.45548 55.8889L6.45548 52.3064C6.44907 50.6306 7.72442 49.227 9.39388 49.0764L18.1113 49.0764L16.1423 62.767L8.2324 58.9571C7.10926 58.3498 6.42341 57.1642 6.45548 55.8889ZM101.706 75.6806L101.706 75.6822C104.353 70.9588 108.655 67.3814 113.781 65.6415L121.369 70.2911L121.369 70.2895C122.368 70.8662 123.598 70.8662 124.598 70.2895L131.928 65.8019L131.926 65.8019C136.901 67.5531 141.06 71.0684 143.615 75.6826L101.706 75.6806ZM41.3598 75.6806L41.3598 75.6822C45.04 72.1205 49.9603 70.1291 55.0824 70.1291L62.0247 70.1291L62.0231 70.1291C67.1677 70.1082 72.1166 72.1013 75.8113 75.6822L41.3598 75.6806ZM48.8501 6.45848L138.416 6.45848C143.208 6.45848 147.846 8.15358 151.511 11.2442C155.175 14.3348 157.626 18.6204 158.434 23.3454L166.375 75.6855L150.749 75.6855C147.604 67.6698 140.91 61.572 132.637 59.1861C131.738 58.8977 130.759 59.0147 129.956 59.5098L123.046 63.7717L115.878 59.3802L115.879 59.3802C115.097 58.8947 114.146 58.7649 113.263 59.0245C104.799 61.3348 97.9252 67.5127 94.7305 75.6854L83.9462 75.6854C79.1363 68.1697 70.8163 63.6387 61.8938 63.674L55.0815 63.674C46.1815 63.6964 37.898 68.2161 33.061 75.6854L20.8876 75.6854L28.8294 23.411L28.831 23.411C29.6241 18.6749 32.0706 14.3732 35.7364 11.2696C39.4006 8.16776 44.047 6.46295 48.8487 6.45967L48.8501 6.45848ZM43.4266 171.124C43.4266 173.694 42.406 176.158 40.5891 177.973C38.7722 179.79 36.3079 180.811 33.7399 180.811L24.5048 180.811C21.9365 180.811 19.4722 179.79 17.6556 177.973C15.8403 176.158 14.8198 173.694 14.8198 171.124L14.8198 151.235L43.5561 151.235L43.4266 171.124ZM172.577 171.124L172.575 171.124C172.575 173.694 171.554 176.158 169.738 177.973C167.922 179.79 165.458 180.811 162.888 180.811L153.655 180.811C151.085 180.811 148.622 179.79 146.806 177.973C144.989 176.158 143.968 173.694 143.968 171.124L143.968 151.235L172.705 151.235L172.577 171.124ZM179.68 132.185L179.679 132.186C180.06 135.935 178.895 139.68 176.449 142.549C175.233 143.991 173.461 144.848 171.573 144.908L15.6894 144.908C13.8036 144.848 12.0316 143.991 10.8138 142.549C8.38013 139.686 7.21537 135.958 7.58546 132.218L11.3954 92.6331C11.7832 86.7564 15.3352 82.1388 19.4673 82.1388L167.895 82.1388C172.028 82.1388 175.579 86.7564 175.967 92.7291L179.68 132.185Z" fill="black"/>
</svg>
